<svg xmlns="http://www.w3.org/2000/svg" viewBox="0 0 32 36">
  <!-- 무당벌레, 위에서 본 모습(앞 = 위). 벽돌빛 붉은색은 채도를 낮춘 자연색(작은 소품). -->
  <defs><radialGradient id="s" cx="40%" cy="35%" r="70%"><stop offset="0" stop-color="#cf6a5e"/><stop offset=".7" stop-color="#b3504a"/><stop offset="1" stop-color="#8b3a38"/></radialGradient></defs>
  <g stroke="#2b2430" stroke-width="1.4" stroke-linecap="round" fill="none">
    <path d="M9 14 L3 10"/><path d="M8 20 L2 20"/><path d="M9 26 L4 31"/>
    <path d="M23 14 L29 10"/><path d="M24 20 L30 20"/><path d="M23 26 L28 31"/>
  </g>
  <circle cx="16" cy="9" r="5" fill="#2b2430"/>
  <circle cx="13.5" cy="8" r="1.1" fill="#fff"/><circle cx="18.5" cy="8" r="1.1" fill="#fff"/>
  <path d="M13 5 L10 1 M19 5 L22 1" stroke="#2b2430" stroke-width="1.1" stroke-linecap="round"/>
  <path d="M16 11 C24 11 27 18 27 24 C27 30 22 34 16 34 C10 34 5 30 5 24 C5 18 8 11 16 11Z" fill="url(#s)"/>
  <path d="M16 11 L16 34" stroke="#2b2430" stroke-width="1"/>
  <g fill="#2b2430"><circle cx="11" cy="17" r="1.8"/><circle cx="21" cy="17" r="1.8"/><circle cx="9" cy="25" r="1.7"/><circle cx="23" cy="25" r="1.7"/><circle cx="13" cy="30" r="1.4"/><circle cx="19" cy="30" r="1.4"/></g>
  <ellipse cx="11" cy="14" rx="2.4" ry="1.3" fill="#fff" opacity=".35" transform="rotate(-30 11 14)"/>
</svg>
